<svg version="1.1" id="Layer_1" xmlns="http://www.w3.org/2000/svg" xmlns:xlink="http://www.w3.org/1999/xlink" x="0px" y="0px"
	 width="100%" viewBox="0 0 512 512" enable-background="new 0 0 512 512" xml:space="preserve">
<path fill="#FF576B" opacity="1.000000" stroke="none" 
	d="
M289.000000,513.000000 
	C267.979095,513.000000 246.958206,513.000000 225.718185,512.616699 
	C224.823120,511.831268 224.190033,511.195190 223.464767,511.062317 
	C214.030991,509.334412 204.473923,508.139465 195.161499,505.915771 
	C168.612228,499.576050 143.855804,488.948364 120.702919,474.388855 
	C98.238609,460.262299 78.731445,442.884827 61.373409,422.916565 
	C49.129700,408.831757 38.699112,393.484192 30.092484,377.011383 
	C15.922874,349.891266 6.134661,321.283173 2.905293,290.654755 
	C2.840795,290.043030 1.659997,289.548950 0.999999,289.000000 
	C1.000000,267.645782 1.000000,246.291550 1.384887,224.712463 
	C2.171094,223.811661 2.782149,223.181915 2.942684,222.452942 
	C5.974538,208.685471 8.418449,194.762573 12.073049,181.164520 
	C17.065580,162.588272 25.107187,145.194702 34.792953,128.563309 
	C43.592796,113.453117 53.603546,99.171989 65.395554,86.306557 
	C73.442909,77.526649 82.313957,69.467674 91.145325,61.448231 
	C104.958870,48.904652 120.505173,38.696522 136.978806,30.093689 
	C164.104309,15.928254 192.715988,6.140226 223.346207,2.905169 
	C223.957718,2.840584 224.451370,1.659955 225.000000,1.000003 
	C246.020889,1.000000 267.041779,1.000000 288.295837,1.391839 
	C294.039734,2.854123 299.538788,3.989983 305.063385,4.983407 
	C326.209076,8.785768 346.445312,15.501958 365.891449,24.497606 
	C381.959778,31.930702 397.041229,41.112358 410.799622,52.163887 
	C409.275360,52.885048 408.058777,53.431026 406.802979,53.863041 
	C321.362122,83.255737 235.911804,112.620987 150.481461,142.044220 
	C138.294708,146.241501 126.203407,150.715912 113.793472,155.340820 
	C99.581253,159.944229 85.643494,164.268875 71.705742,168.593536 
	C97.181076,174.899643 122.329391,179.968613 147.497452,184.937576 
	C159.996780,187.405334 172.532364,189.689468 185.324463,192.302719 
	C189.051575,193.353912 192.505783,194.159073 195.962585,195.420044 
	C197.042206,205.902100 197.944290,215.950989 199.235703,225.949570 
	C201.370834,242.480789 203.842957,258.968323 206.013199,275.495239 
	C208.163361,291.869354 210.023697,308.281769 212.211411,324.650574 
	C212.864197,329.534698 214.190948,334.328766 215.208893,339.164093 
	C216.028870,339.517395 216.848846,339.870667 217.668808,340.223938 
	C218.466949,338.776062 219.067795,337.166748 220.097534,335.908417 
	C224.415451,330.631744 228.845657,325.446472 233.263947,320.252563 
	C251.043808,299.351593 268.951935,278.557495 286.498138,257.462250 
	C289.217285,254.193100 290.958191,254.337036 294.250854,255.994141 
	C327.271210,272.612457 360.363983,289.086914 393.439056,305.596497 
	C395.034943,306.393158 396.655914,307.139587 399.036194,308.278198 
	C401.126221,300.534882 403.059692,293.371582 405.203979,285.891663 
	C419.669128,236.812698 433.890076,188.040558 448.200226,139.294617 
	C451.979462,126.421150 456.033813,113.628464 460.279297,100.952866 
	C461.183899,101.695312 461.871155,102.212914 462.343353,102.882256 
	C473.310455,118.428734 483.374329,134.444901 491.107391,151.953964 
	C501.150757,174.694016 508.065948,198.193939 511.078705,222.863846 
	C511.173798,223.642487 512.335510,224.290878 513.000000,225.000000 
	C513.000000,246.020889 513.000000,267.041779 512.616699,288.282013 
	C511.824738,289.343781 511.200348,290.147430 511.040894,291.034637 
	C509.487091,299.678986 508.439545,308.438141 506.430603,316.972229 
	C500.938629,340.302490 492.280823,362.414551 480.374451,383.287201 
	C471.126312,399.499878 460.687225,414.918976 447.831390,428.346222 
	C436.557892,440.120728 424.383209,451.157013 411.758179,461.481934 
	C395.070496,475.129395 376.241272,485.638062 356.306488,493.761169 
	C335.228516,502.350159 313.488464,508.939575 290.637909,511.095886 
	C290.037415,511.152557 289.543610,512.339905 289.000000,513.000000 
M107.350624,214.810852 
	C110.876205,212.766052 114.401794,210.721252 118.060455,208.599274 
	C116.651009,206.139893 115.529503,204.182938 114.273949,201.992081 
	C93.554665,213.650848 73.313347,225.040665 52.781525,236.593948 
	C54.085079,238.924103 55.198463,240.914307 56.559517,243.347214 
	C73.440933,233.845154 90.065475,224.487686 107.350624,214.810852 
M203.563248,358.979095 
	C205.268799,357.504822 206.974365,356.030518 208.900757,354.365356 
	C207.124863,352.246460 205.686005,350.529694 204.058105,348.587372 
	C189.800995,360.299591 175.966995,371.664185 161.976196,383.157593 
	C163.777679,385.381622 165.196579,387.133362 166.811279,389.126770 
	C179.124313,379.024658 191.064194,369.228699 203.563248,358.979095 
M364.712860,318.852264 
	C363.623077,316.657806 362.533264,314.463318 361.164673,311.707397 
	C347.971039,323.949280 335.741852,335.296265 323.352417,346.791962 
	C325.370056,348.929260 326.835968,350.482117 328.640350,352.393524 
	C340.604492,341.279053 352.392212,330.328522 364.712860,318.852264 
z"/>
<path fill="#000000" opacity="1.000000" stroke="none" 
	d="
M289.468689,513.000000 
	C289.543610,512.339905 290.037415,511.152557 290.637909,511.095886 
	C313.488464,508.939575 335.228516,502.350159 356.306488,493.761169 
	C376.241272,485.638062 395.070496,475.129395 411.758179,461.481934 
	C424.383209,451.157013 436.557892,440.120728 447.831390,428.346222 
	C460.687225,414.918976 471.126312,399.499878 480.374451,383.287201 
	C492.280823,362.414551 500.938629,340.302490 506.430603,316.972229 
	C508.439545,308.438141 509.487091,299.678986 511.040894,291.034637 
	C511.200348,290.147430 511.824738,289.343781 512.616699,288.750671 
	C513.000000,363.593719 513.000000,438.187408 513.000000,513.000000 
	C438.645905,513.000000 364.291626,513.000000 289.468689,513.000000 
z"/>
<path fill="#000000" opacity="1.000000" stroke="none" 
	d="
M0.999999,289.468658 
	C1.659997,289.548950 2.840795,290.043030 2.905293,290.654755 
	C6.134661,321.283173 15.922874,349.891266 30.092484,377.011383 
	C38.699112,393.484192 49.129700,408.831757 61.373409,422.916565 
	C78.731445,442.884827 98.238609,460.262299 120.702919,474.388855 
	C143.855804,488.948364 168.612228,499.576050 195.161499,505.915771 
	C204.473923,508.139465 214.030991,509.334412 223.464767,511.062317 
	C224.190033,511.195190 224.823120,511.831268 225.249527,512.616699 
	C150.406296,513.000000 75.812599,513.000000 1.000000,513.000000 
	C1.000000,438.645905 1.000000,364.291626 0.999999,289.468658 
z"/>
<path fill="#000000" opacity="1.000000" stroke="none" 
	d="
M224.531342,1.000003 
	C224.451370,1.659955 223.957718,2.840584 223.346207,2.905169 
	C192.715988,6.140226 164.104309,15.928254 136.978806,30.093689 
	C120.505173,38.696522 104.958870,48.904652 91.145325,61.448231 
	C82.313957,69.467674 73.442909,77.526649 65.395554,86.306557 
	C53.603546,99.171989 43.592796,113.453117 34.792953,128.563309 
	C25.107187,145.194702 17.065580,162.588272 12.073049,181.164520 
	C8.418449,194.762573 5.974538,208.685471 2.942684,222.452942 
	C2.782149,223.181915 2.171094,223.811661 1.384887,224.243805 
	C1.000000,149.739456 1.000000,75.478920 1.000000,1.000000 
	C75.354088,1.000000 149.708389,1.000000 224.531342,1.000003 
z"/>
<path fill="#000000" opacity="1.000000" stroke="none" 
	d="
M411.088989,51.935516 
	C397.041229,41.112358 381.959778,31.930702 365.891449,24.497606 
	C346.445312,15.501958 326.209076,8.785768 305.063385,4.983407 
	C299.538788,3.989983 294.039734,2.854123 288.764465,1.391839 
	C363.593719,1.000000 438.187408,1.000000 513.000000,1.000000 
	C513.000000,75.354088 513.000000,149.708389 513.000000,224.531342 
	C512.335510,224.290878 511.173798,223.642487 511.078705,222.863846 
	C508.065948,198.193939 501.150757,174.694016 491.107391,151.953964 
	C483.374329,134.444901 473.310455,118.428734 462.343353,102.882256 
	C461.871155,102.212914 461.183899,101.695312 460.291107,100.577164 
	C460.319244,99.321106 460.751648,98.623611 460.972626,97.864563 
	C467.266510,76.242424 473.539185,54.614098 479.977112,32.645668 
	C480.859741,31.088436 481.580627,29.872320 482.301514,28.656202 
	C482.018402,28.312695 481.735291,27.969187 481.452179,27.625679 
	C478.618744,28.711687 475.785309,29.797695 472.622925,30.932577 
	C471.858490,31.047199 471.422943,31.112947 470.692993,31.158463 
	C469.936523,31.486616 469.474518,31.834999 468.627136,32.100834 
	C449.190826,38.657360 430.139893,45.296436 411.088989,51.935516 
z"/>
<path fill="#F8BA33" opacity="1.000000" stroke="none" 
	d="
M404.993164,286.208252 
	C403.059692,293.371582 401.126221,300.534882 399.036194,308.278198 
	C396.655914,307.139587 395.034943,306.393158 393.439056,305.596497 
	C360.363983,289.086914 327.271210,272.612457 294.250854,255.994141 
	C290.958191,254.337036 289.217285,254.193100 286.498138,257.462250 
	C268.951935,278.557495 251.043808,299.351593 233.263947,320.252563 
	C228.845657,325.446472 224.415451,330.631744 220.097534,335.908417 
	C219.067795,337.166748 218.466949,338.776062 217.668808,340.223938 
	C216.848846,339.870667 216.028870,339.517395 215.208893,339.164093 
	C214.190948,334.328766 212.864197,329.534698 212.211411,324.650574 
	C210.023697,308.281769 208.163361,291.869354 206.013199,275.495239 
	C203.842957,258.968323 201.370834,242.480789 199.235703,225.949570 
	C197.944290,215.950989 197.042206,205.902100 196.158600,195.145081 
	C223.538651,178.589798 250.725296,162.765244 277.971069,147.378265 
	C276.066162,165.540665 274.102173,183.265503 271.965210,201.283951 
	C261.260040,210.687744 250.727814,219.797913 240.068649,229.017883 
	C243.555038,231.304153 246.016235,231.396149 249.015778,228.785416 
	C261.409332,217.998199 274.036835,207.479111 286.609222,196.898132 
	C300.066467,185.572464 313.558319,174.287964 327.288940,163.207321 
	C352.051697,202.671326 376.553284,241.918060 401.092926,281.141022 
	C402.218140,282.939514 403.685242,284.524048 404.993164,286.208252 
z"/>
<path fill="#ECF0F1" opacity="1.000000" stroke="none" 
	d="
M405.203979,285.891663 
	C403.685242,284.524048 402.218140,282.939514 401.092926,281.141022 
	C376.553284,241.918060 352.051697,202.671326 327.276215,162.965439 
	C327.009613,162.501724 326.979187,162.018448 327.289948,161.880005 
	C330.511139,159.293839 333.433167,156.859787 336.329895,154.395996 
	C347.051910,145.276520 357.788483,136.173981 368.475769,127.013947 
	C378.790222,118.173439 389.032196,109.248421 399.339355,100.399353 
	C412.658630,88.964241 426.028534,77.588089 439.343445,66.147957 
	C449.647491,57.294731 459.836304,48.306057 470.217133,39.544384 
	C473.162933,37.058044 476.602325,35.156509 479.815338,32.986786 
	C473.539185,54.614098 467.266510,76.242424 460.972626,97.864563 
	C460.751648,98.623611 460.319244,99.321106 459.973633,100.422997 
	C456.033813,113.628464 451.979462,126.421150 448.200226,139.294617 
	C433.890076,188.040558 419.669128,236.812698 405.203979,285.891663 
z"/>
<path fill="#ECEFF0" opacity="1.000000" stroke="none" 
	d="
M410.799622,52.163883 
	C430.139893,45.296436 449.190826,38.657360 468.556152,32.425911 
	C467.603821,34.251072 466.337067,35.668606 465.056091,37.074394 
	C465.041901,37.062649 465.050232,37.037678 464.671936,37.028381 
	C462.208740,38.366337 460.123840,39.713585 458.014862,41.042107 
	C457.990814,41.023380 458.047363,41.041267 457.667786,41.030853 
	C455.591522,41.653870 453.770935,42.069439 452.216583,42.953194 
	C426.361664,57.653381 400.541656,72.414909 374.710724,87.157288 
	C346.426025,103.300102 318.119812,119.405403 289.866913,135.603668 
	C284.143433,138.885132 278.615997,142.508530 272.643372,146.022675 
	C271.196472,146.364868 270.104309,146.658661 268.546692,146.921173 
	C241.527725,148.319153 214.970932,149.690781 188.421768,151.196762 
	C168.844299,152.307251 149.279526,153.641006 129.702957,154.768692 
	C124.502899,155.068253 119.280220,154.974976 114.067924,155.062057 
	C126.203407,150.715912 138.294708,146.241501 150.481461,142.044220 
	C235.911804,112.620987 321.362122,83.255737 406.802979,53.863041 
	C408.058777,53.431026 409.275360,52.885048 410.799622,52.163883 
z"/>
<path fill="#FFC430" opacity="1.000000" stroke="none" 
	d="
M113.793472,155.340820 
	C119.280220,154.974976 124.502899,155.068253 129.702957,154.768692 
	C149.279526,153.641006 168.844299,152.307251 188.421768,151.196762 
	C214.970932,149.690781 241.527725,148.319153 268.352234,147.202637 
	C265.163513,149.465866 261.723389,151.452042 258.240814,153.360825 
	C240.962067,162.831284 223.724319,172.378677 206.360474,181.690750 
	C199.404922,185.420944 192.163071,188.617325 185.051544,192.056686 
	C172.532364,189.689468 159.996780,187.405334 147.497452,184.937576 
	C122.329391,179.968613 97.181076,174.899643 71.705742,168.593536 
	C85.643494,164.268875 99.581253,159.944229 113.793472,155.340820 
z"/>
<path fill="#FFF9FA" opacity="1.000000" stroke="none" 
	d="
M107.020317,214.970520 
	C90.065475,224.487686 73.440933,233.845154 56.559517,243.347214 
	C55.198463,240.914307 54.085079,238.924103 52.781525,236.593948 
	C73.313347,225.040665 93.554665,213.650848 114.273949,201.992081 
	C115.529503,204.182938 116.651009,206.139893 118.060455,208.599274 
	C114.401794,210.721252 110.876205,212.766052 107.020317,214.970520 
z"/>
<path fill="#FBDF77" opacity="1.000000" stroke="none" 
	d="
M185.324463,192.302719 
	C192.163071,188.617325 199.404922,185.420944 206.360474,181.690750 
	C223.724319,172.378677 240.962067,162.831284 258.240814,153.360825 
	C261.723389,151.452042 265.163513,149.465866 268.817688,147.233917 
	C270.104309,146.658661 271.196472,146.364868 273.059967,146.055817 
	C275.226379,146.049088 276.621399,146.057587 278.018463,146.288116 
	C278.020477,146.510117 277.911926,146.940689 277.911926,146.940689 
	C250.725296,162.765244 223.538651,178.589798 196.156006,194.689301 
	C192.505783,194.159073 189.051575,193.353912 185.324463,192.302719 
z"/>
<path fill="#FFF9FA" opacity="1.000000" stroke="none" 
	d="
M203.283661,359.205933 
	C191.064194,369.228699 179.124313,379.024658 166.811279,389.126770 
	C165.196579,387.133362 163.777679,385.381622 161.976196,383.157593 
	C175.966995,371.664185 189.800995,360.299591 204.058105,348.587372 
	C205.686005,350.529694 207.124863,352.246460 208.900757,354.365356 
	C206.974365,356.030518 205.268799,357.504822 203.283661,359.205933 
z"/>
<path fill="#FFF9FA" opacity="1.000000" stroke="none" 
	d="
M364.446381,319.115112 
	C352.392212,330.328522 340.604492,341.279053 328.640350,352.393524 
	C326.835968,350.482117 325.370056,348.929260 323.352417,346.791962 
	C335.741852,335.296265 347.971039,323.949280 361.164673,311.707397 
	C362.533264,314.463318 363.623077,316.657806 364.446381,319.115112 
z"/>
<path fill="#FCFCFD" opacity="1.000000" stroke="none" 
	d="
M479.977112,32.645668 
	C476.602325,35.156509 473.162933,37.058044 470.217133,39.544384 
	C459.836304,48.306057 449.647491,57.294731 439.343445,66.147957 
	C426.028534,77.588089 412.658630,88.964241 399.339355,100.399353 
	C389.032196,109.248421 378.790222,118.173439 368.475769,127.013947 
	C357.788483,136.173981 347.051910,145.276520 336.329895,154.395996 
	C333.433167,156.859787 330.511139,159.293839 327.034790,161.699097 
	C325.918365,160.754868 325.367889,159.853104 324.992676,158.659805 
	C326.717834,156.858749 328.173370,155.235703 329.832031,153.857056 
	C348.859894,138.041580 367.946045,122.296227 386.962189,106.466705 
	C411.083008,86.387932 435.184265,66.285362 459.216522,46.100792 
	C463.346832,42.631748 467.091034,38.703007 471.006958,34.993141 
	C471.000275,34.999653 470.987274,35.012939 471.295319,35.022030 
	C472.082367,34.687077 472.561340,34.343033 473.018982,33.998215 
	C472.997620,33.997444 472.999817,34.040161 473.176025,33.940784 
	C473.233582,33.548618 473.114929,33.255825 472.996399,32.616310 
	C472.981628,31.807629 472.966766,31.345669 472.951904,30.883707 
	C475.785309,29.797695 478.618744,28.711687 481.452179,27.625679 
	C481.735291,27.969187 482.018402,28.312695 482.301514,28.656202 
	C481.580627,29.872320 480.859741,31.088436 479.977112,32.645668 
z"/>
<path fill="#FCFCFD" opacity="1.000000" stroke="none" 
	d="
M465.070312,37.086128 
	C466.337067,35.668606 467.603821,34.251072 468.941528,32.508461 
	C469.474518,31.834999 469.936523,31.486616 470.697998,31.513187 
	C471.005035,32.602367 471.012604,33.316589 470.988678,34.275566 
	C470.957214,34.520317 470.987274,35.012939 470.987274,35.012939 
	C470.987274,35.012939 471.000275,34.999653 470.651428,35.010361 
	C468.558472,35.709419 466.814392,36.397770 465.070312,37.086128 
z"/>
<path fill="#ECEFF0" opacity="1.000000" stroke="none" 
	d="
M471.020142,34.030807 
	C471.012604,33.316589 471.005035,32.602367 470.992462,31.533419 
	C471.422943,31.112947 471.858490,31.047199 472.622955,30.932581 
	C472.966766,31.345669 472.981628,31.807629 472.984070,32.885773 
	C472.981049,33.681362 472.990448,33.860760 472.999817,34.040161 
	C472.999817,34.040161 472.997620,33.997444 472.681915,33.990017 
	C471.917511,33.998665 471.468842,34.014736 471.020142,34.030807 
z"/>
<path fill="#C7CBD6" opacity="1.000000" stroke="none" 
	d="
M465.056091,37.074387 
	C466.814392,36.397770 468.558472,35.709419 470.658081,35.003853 
	C467.091034,38.703007 463.346832,42.631748 459.216522,46.100792 
	C435.184265,66.285362 411.083008,86.387932 386.962189,106.466705 
	C367.946045,122.296227 348.859894,138.041580 329.832031,153.857056 
	C328.173370,155.235703 326.717834,156.858749 324.665649,158.718338 
	C311.756683,169.234055 299.381378,179.438309 286.927612,189.545929 
	C282.088959,193.473053 277.073242,197.182007 272.138153,200.990326 
	C274.102173,183.265503 276.066162,165.540665 277.971069,147.378265 
	C277.911926,146.940689 278.020477,146.510117 278.361511,146.212311 
	C301.558716,132.661667 324.419617,119.417053 347.269806,106.153946 
	C377.452820,88.634575 407.647675,71.135445 437.790253,53.546738 
	C444.642029,49.548607 451.300110,45.218552 458.047363,41.041271 
	C458.047363,41.041267 457.990814,41.023380 458.363770,41.001751 
	C460.841217,39.665970 462.945740,38.351822 465.050232,37.037674 
	C465.050232,37.037678 465.041901,37.062649 465.056091,37.074387 
z"/>
<path fill="#FBE177" opacity="1.000000" stroke="none" 
	d="
M271.965210,201.283951 
	C277.073242,197.182007 282.088959,193.473053 286.927612,189.545929 
	C299.381378,179.438309 311.756683,169.234055 324.490356,159.009872 
	C325.367889,159.853104 325.918365,160.754868 326.724030,161.837540 
	C326.979187,162.018448 327.009613,162.501724 327.022339,162.743607 
	C313.558319,174.287964 300.066467,185.572464 286.609222,196.898132 
	C274.036835,207.479111 261.409332,217.998199 249.015778,228.785416 
	C246.016235,231.396149 243.555038,231.304153 240.068649,229.017883 
	C250.727814,219.797913 261.260040,210.687744 271.965210,201.283951 
z"/>
<path fill="#FCFCFD" opacity="1.000000" stroke="none" 
	d="
M457.667786,41.030857 
	C451.300110,45.218552 444.642029,49.548607 437.790253,53.546738 
	C407.647675,71.135445 377.452820,88.634575 347.269806,106.153946 
	C324.419617,119.417053 301.558716,132.661667 278.359497,145.990295 
	C276.621399,146.057587 275.226379,146.049088 273.414734,146.007431 
	C278.615997,142.508530 284.143433,138.885132 289.866913,135.603668 
	C318.119812,119.405403 346.426025,103.300102 374.710724,87.157288 
	C400.541656,72.414909 426.361664,57.653381 452.216583,42.953194 
	C453.770935,42.069439 455.591522,41.653870 457.667786,41.030857 
z"/>
<path fill="#FCFCFD" opacity="1.000000" stroke="none" 
	d="
M464.671936,37.028381 
	C462.945740,38.351822 460.841217,39.665970 458.387817,41.020477 
	C460.123840,39.713585 462.208740,38.366337 464.671936,37.028381 
z"/>
<path fill="#C7CBD6" opacity="1.000000" stroke="none" 
	d="
M470.988678,34.275562 
	C471.468842,34.014736 471.917511,33.998665 472.703278,33.990791 
	C472.561340,34.343033 472.082367,34.687077 471.295319,35.022030 
	C470.987274,35.012939 470.957214,34.520317 470.988678,34.275562 
z"/>
<path fill="#C7CBD6" opacity="1.000000" stroke="none" 
	d="
M473.176025,33.940784 
	C472.990448,33.860760 472.981049,33.681362 472.983948,33.232498 
	C473.114929,33.255825 473.233582,33.548618 473.176025,33.940784 
z"/>
</svg>